<?xml version="1.0" encoding="utf-8"?>
<!-- Generator: Adobe Illustrator 24.3.0, SVG Export Plug-In . SVG Version: 6.00 Build 0)  -->
<svg version="1.1" xmlns="http://www.w3.org/2000/svg" xmlns:xlink="http://www.w3.org/1999/xlink" x="0px" y="0px"
	 viewBox="0 0 300 300" style="enable-background:new 0 0 300 300;" xml:space="preserve">
<style type="text/css">
	.st0{clip-path:url(#SVGID_2_);}
	.st1{fill:#504B2D;}
	.st2{opacity:0.15;}
	.st3{fill:#736F57;}
	.st4{fill:#88805E;}
	.st5{fill:#FFFFFF;}
	.st6{fill:#B8B39E;}
	.st7{clip-path:url(#SVGID_4_);}
	.st8{fill:#0E3C5C;}
	.st9{fill:#3E637D;}
	.st10{fill:#3A7C9A;}
	.st11{fill:#89B0C2;}
	.st12{clip-path:url(#SVGID_6_);}
	.st13{clip-path:url(#SVGID_8_);}
	.st14{fill:#3F660E;}
	.st15{fill:#65853E;}
	.st16{fill:#7FA33F;}
	.st17{fill:#B2C88C;}
	.st18{clip-path:url(#SVGID_10_);}
	.st19{fill:#A81307;}
	.st20{fill:#CB716A;}
	.st21{fill:#CF4627;}
	.st22{fill:#E2907D;}
	.st23{clip-path:url(#SVGID_12_);}
	.st24{fill:#035D80;}
	.st25{fill:#357D99;}
	.st26{fill:#1599B5;}
	.st27{fill:#73C2D3;}
	.st28{clip-path:url(#SVGID_14_);}
	.st29{fill:#044714;}
	.st30{fill:#366C43;}
	.st31{fill:#097151;}
	.st32{clip-path:url(#SVGID_16_);}
	.st33{fill:#430420;}
	.st34{fill:#69364D;}
	.st35{fill:#65073A;}
	.st36{fill:#A9658A;}
	.st37{clip-path:url(#SVGID_18_);}
	.st38{fill:#E61D6A;}
	.st39{fill:#F17EAA;}
	.st40{clip-path:url(#SVGID_20_);}
	.st41{fill:#405870;}
	.st42{fill:#415870;}
	.st43{fill:#189AB6;}
	.st44{clip-path:url(#SVGID_22_);}
	.st45{clip-path:url(#SVGID_24_);}
	.st46{clip-path:url(#SVGID_26_);}
	.st47{clip-path:url(#SVGID_28_);}
	.st48{clip-path:url(#SVGID_30_);}
	.st49{clip-path:url(#SVGID_32_);}
	.st50{fill:#6BAA97;}
	.st51{clip-path:url(#SVGID_34_);}
	.st52{clip-path:url(#SVGID_36_);}
	.st53{clip-path:url(#SVGID_38_);}
	.st54{clip-path:url(#SVGID_40_);}
	.st55{clip-path:url(#SVGID_42_);}
	.st56{clip-path:url(#SVGID_44_);}
	.st57{fill:#199AB5;}
	.st58{fill:#C6541A;}
	.st59{fill:#F58200;}
	.st60{fill:#B5BDC6;}
	.st61{fill:#354B60;}
	.st62{fill:none;stroke:#8399B3;stroke-width:2;stroke-miterlimit:10;}
	.st63{fill:#064F39;}
	.st64{fill:none;stroke:#6BAA97;stroke-width:2;stroke-miterlimit:10;}
	.st65{fill:#231F20;}
	.st66{fill:#CCCCCC;}
	.st67{fill:#4E647F;}
	.st68{fill:#8399B3;}
	.st69{fill:#28566B;}
	.st70{fill:none;stroke:#89B0C2;stroke-width:2;stroke-miterlimit:10;}
	.st71{fill:#5B752D;}
	.st72{fill:none;stroke:#B2C88C;stroke-width:2;stroke-miterlimit:10;}
	.st73{fill:none;stroke:#FFFFFF;stroke-width:2;stroke-miterlimit:10;}
	.st74{fill:#3F3F47;}
	.st75{fill:#D0532C;}
	.st76{fill:#832D1A;}
	.st77{fill:#07596B;}
	.st78{fill:#7FA03E;}
	.st79{fill:#425627;}
	.st80{fill:#ECBA1E;}
	.st81{fill:#9E7B2D;}
	.st82{fill:#CC9D2C;}
	.st83{fill:#804096;}
	.st84{fill:#3D174A;}
	.st85{fill:#443954;}
	.st86{fill:#3D7E99;}
	.st87{fill:#7E9E3E;}
	.st88{fill:#CD4828;}
	.st89{fill:#1798B3;}
	.st90{fill:#3C7D99;}
	.st91{fill:url(#SVGID_45_);}
	.st92{fill:#FFFFFF;stroke:#1D2F46;stroke-width:1.1671;stroke-miterlimit:10;}
	.st93{fill:#1D2F46;}
	.st94{fill:url(#SVGID_46_);}
	.st95{fill:#7258A3;}
	.st96{fill:none;}
	.st97{fill:#666047;}
	.st98{fill:#A3371F;}
	.st99{fill:#117F96;}
	.st100{fill:#470529;}
	.st101{fill:#AB164F;}
</style>
<g id="Organization_text">
</g>
<g id="all">
	<g>
		<path class="st21" d="M254.3,45.7C226.4,17.8,189.4,2.5,150,2.5S73.6,17.8,45.7,45.7S2.5,110.6,2.5,150s15.3,76.4,43.2,104.3
			s64.9,43.2,104.3,43.2s76.4-15.3,104.3-43.2s43.2-64.9,43.2-104.3S282.2,73.6,254.3,45.7z"/>
		<g>
			<circle class="st22" cx="150" cy="27.5" r="5"/>
			<path class="st22" d="M109.8,39.5c2.6-0.9,3.9-3.8,3-6.4s-3.8-3.9-6.4-3s-3.9,3.8-3,6.4C104.4,39.2,107.2,40.5,109.8,39.5z"/>
			<path class="st22" d="M68,52.3c-2.1,1.8-2.4,4.9-0.6,7s4.9,2.4,7,0.6c2.1-1.8,2.4-4.9,0.6-7C73.3,50.8,70.1,50.6,68,52.3z"/>
			<path class="st22" d="M41.4,93.1c2.4,1.4,5.4,0.6,6.8-1.8c1.4-2.4,0.6-5.4-1.8-6.8c-2.4-1.4-5.4-0.6-6.8,1.8
				C38.2,88.6,39,91.7,41.4,93.1z"/>
			<path class="st22" d="M30.2,123.8c-2.7-0.5-5.3,1.3-5.8,4s1.3,5.3,4,5.8s5.3-1.3,5.8-4C34.7,126.9,32.9,124.3,30.2,123.8z"/>
			<path class="st22" d="M28.5,166.4c-2.7,0.5-4.5,3.1-4,5.8s3.1,4.5,5.8,4s4.5-3.1,4-5.8S31.2,165.9,28.5,166.4z"/>
			<path class="st22" d="M41.4,206.9c-2.4,1.4-3.2,4.4-1.8,6.8c1.4,2.4,4.4,3.2,6.8,1.8c2.4-1.4,3.2-4.4,1.8-6.8
				C46.8,206.4,43.8,205.6,41.4,206.9z"/>
			<path class="st22" d="M67.4,240.7c-1.8,2.1-1.5,5.3,0.6,7c2.1,1.8,5.3,1.5,7-0.6c1.8-2.1,1.5-5.3-0.6-7
				C72.3,238.3,69.2,238.5,67.4,240.7z"/>
			<ellipse class="st22" cx="108.1" cy="265.1" rx="5" ry="5"/>
			<path class="st22" d="M150,267.5c-2.8,0-5,2.2-5,5s2.2,5,5,5s5-2.2,5-5C155,269.8,152.8,267.5,150,267.5z"/>
			<path class="st22" d="M190.2,260.5c-2.6,0.9-3.9,3.8-3,6.4s3.8,3.9,6.4,3c2.6-0.9,3.9-3.8,3-6.4
				C195.7,260.8,192.8,259.5,190.2,260.5z"/>
			<path class="st22" d="M225.6,240c-2.1,1.8-2.4,4.9-0.6,7c1.8,2.1,4.9,2.4,7,0.6c2.1-1.8,2.4-4.9,0.6-7
				C230.8,238.5,227.7,238.3,225.6,240z"/>
			<path class="st22" d="M258.6,206.9c-2.4-1.4-5.4-0.6-6.8,1.8c-1.4,2.4-0.6,5.4,1.8,6.8c2.4,1.4,5.4,0.6,6.8-1.8
				C261.8,211.4,261,208.3,258.6,206.9z"/>
			<path class="st22" d="M280.2,150l4-15.6l10.9,0.7c-0.4-3.5-0.8-7-1.4-10.4l0,0v-0.1c-0.6-3.5-1.3-6.9-2.2-10.2l-10,4.3l-9.1-13.3
				l-1.6-16l10.5-3.1c-1.5-3.1-3.2-6.2-4.9-9.3h-0.1v-0.1c-1.8-3-3.6-6-5.6-8.9l-7.9,7.5l-13.1-9.4l-6.9-14.5l8.8-6.5
				c-2.5-2.4-5.1-4.8-7.8-7l0,0l0,0c-2.7-2.2-5.4-4.4-8.3-6.5l-4.9,9.8l-15.5-4.3l-11.5-11.3l6-9.1c-3.2-1.4-6.4-2.8-9.7-3.9h-0.1
				v-0.1c-3.3-1.2-6.6-2.3-10-3.2l-1.2,10.9l-16,1.3L158,15.1l2.5-10.6c-3.5-0.2-7-0.4-10.5-0.4l0,0l0,0c-3.5,0-7,0.1-10.5,0.4
				l2.5,10.6l-14.7,6.7l-16-1.3l-1.2-10.9c-3.4,1-6.7,2-10,3.2v0.1H100c-3.3,1.2-6.5,2.5-9.7,3.9l6,9.1L84.9,37.2l-15.5,4.3
				l-4.9-9.8c-2.8,2.1-5.6,4.2-8.3,6.5l0,0l0,0c-2.7,2.2-5.3,4.6-7.8,7l8.7,6.5l-6.9,14.5l-13.1,9.3L29.2,68c-2,2.9-3.8,5.8-5.6,8.9
				V77h-0.1c-1.7,3-3.4,6.1-4.9,9.3l10.5,3.1l-1.6,16l-9.1,13.3l-10-4.3c-0.8,3.4-1.6,6.8-2.2,10.2v0.1H6.1
				c-0.6,3.4-1.1,6.9-1.4,10.4l10.9-0.7l4,15.6l-4,15.6l-10.9-0.7c0.4,3.5,0.8,7,1.4,10.4h0.1l0,0c0.6,3.5,1.3,6.9,2.2,10.2l10-4.3
				l9.1,13.3l1.6,16l-10.5,3.1c1.5,3.1,3.2,6.2,4.9,9.3h0.1v0.1c1.7,3,3.6,6,5.6,8.9l7.9-7.5l13.1,9.3l6.9,14.5l-8.8,6.5
				c2.5,2.4,5.1,4.8,7.8,7l0,0l0,0c2.7,2.3,5.4,4.4,8.3,6.5l4.9-9.8l15.5,4.3L96.3,274l-6,9.1c3.2,1.4,6.4,2.7,9.7,3.9h0.1v0.1
				c3.3,1.2,6.6,2.3,10,3.2l1.2-10.9l16-1.3l14.7,6.7l-2.5,10.6c3.5,0.2,7,0.4,10.5,0.4l0,0l0,0c3.5,0,7-0.1,10.5-0.4l-2.5-10.6
				l14.7-6.7l16,1.3l1.2,10.9c3.4-1,6.7-2,10-3.2V287h0.1c3.3-1.2,6.5-2.5,9.7-3.9l-6-9.1l11.5-11.3l15.5-4.3l4.9,9.8
				c2.8-2.1,5.6-4.2,8.3-6.5l0,0l0,0c2.7-2.3,5.3-4.6,7.8-7l-8.8-6.5l6.9-14.5l13.1-9.3l7.9,7.5c2-2.9,3.8-5.8,5.6-8.9v-0.1h0.1
				c1.7-3,3.4-6.1,4.9-9.3l-10.5-3.1l1.6-16l9.1-13.3l10,4.4c0.9-3.4,1.6-6.8,2.2-10.2l0,0l0,0c0.6-3.4,1.1-6.9,1.4-10.4l-10.9,0.7
				L280.2,150z M278,172.6c-1.3,7.5-3.3,14.8-5.9,21.8s-5.7,13.9-9.6,20.6c-3.9,6.7-8.2,12.8-13,18.5s-10.1,11.1-16,16
				s-12.1,9.2-18.6,13c-6.4,3.7-13.3,7-20.5,9.6s-14.6,4.5-21.9,5.8c-7.3,1.3-14.8,2-22.5,2s-15.2-0.7-22.5-2s-14.7-3.2-21.9-5.8
				c-7.3-2.6-14.1-5.9-20.5-9.6s-12.7-8-18.5-12.9c-5.9-4.9-11.1-10.3-15.9-15.9c-4.8-5.7-9.2-11.9-13.1-18.6
				c-3.9-6.7-7-13.5-9.5-20.5s-4.6-14.3-5.9-21.9c-1.3-7.6-1.9-15.1-1.9-22.6c0-7.4,0.6-15,1.9-22.6s3.3-14.9,5.9-21.8
				c2.6-7,5.7-13.9,9.5-20.6c3.9-6.7,8.3-12.8,13-18.6c4.8-5.7,10.1-11.1,16-16c5.9-5,12.1-9.2,18.6-13c6.4-3.7,13.3-7,20.5-9.6
				s14.6-4.5,21.9-5.8c7.3-1.3,14.8-2,22.5-2c7.7,0,15.1,0.7,22.4,2c7.4,1.3,14.7,3.2,22,5.8c7.2,2.6,14,5.9,20.5,9.6
				s12.7,8,18.6,13c5.9,5,11.2,10.4,16,16.1s9.1,11.8,13,18.5s7,13.6,9.5,20.6s4.6,14.3,5.9,21.8c1.3,7.6,1.9,15.1,1.9,22.6
				C279.9,157.4,279.3,165,278,172.6z"/>
			<path class="st22" d="M271.5,166.4c-2.7-0.5-5.3,1.3-5.8,4.1c-0.5,2.7,1.3,5.3,4,5.8s5.3-1.3,5.8-4
				C276.1,169.4,274.2,166.8,271.5,166.4z"/>
			<ellipse class="st22" cx="270.7" cy="128.7" rx="5" ry="5"/>
			<path class="st22" d="M253.6,84.4c-2.4,1.4-3.2,4.4-1.8,6.8s4.4,3.2,6.8,1.8c2.4-1.4,3.2-4.4,1.8-6.8
				C259.1,83.9,256,83,253.6,84.4z"/>
			<path class="st22" d="M224.9,52.9c-1.8,2.1-1.5,5.3,0.6,7c2.1,1.8,5.2,1.5,7-0.6s1.5-5.2-0.6-7C229.9,50.6,226.7,50.8,224.9,52.9
				z"/>
			<path class="st22" d="M193.6,30.2c-2.6-0.9-5.5,0.4-6.4,3s0.4,5.5,3,6.4s5.4-0.4,6.4-3C197.5,34,196.2,31.1,193.6,30.2z"/>
		</g>
		<path class="st5" d="M262.9,150c0,62.3-50.5,112.9-112.9,112.9c-62.3,0-112.9-50.5-112.9-112.9C37.1,87.7,87.7,37.1,150,37.1
			S262.9,87.7,262.9,150z"/>
		<g>
			<path class="st21" d="M83.9,114H97l31.3,72.1h-17.9l-6.2-15.3h-28l-6,15.3H52.7L83.9,114z M90,134.9l-8.8,22.4h17.6L90,134.9z"/>
			<path class="st21" d="M136.1,114h26.8c3.7,0,7.3,0.3,10.6,1c3.3,0.7,6.2,1.8,8.7,3.5c2.5,1.7,4.4,3.9,5.9,6.7
				c1.5,2.8,2.2,6.4,2.2,10.6c0,4.2-0.7,7.7-2,10.6c-1.4,2.8-3.2,5.1-5.6,6.8c-2.4,1.7-5.2,2.9-8.4,3.6c-3.3,0.7-6.8,1.1-10.6,1.1
				h-11.6V186h-15.9V114z M151.9,144.5h10.6c1.4,0,2.8-0.1,4.1-0.4c1.3-0.3,2.5-0.7,3.6-1.4c1.1-0.6,1.9-1.5,2.5-2.6
				c0.6-1.1,1-2.5,1-4.2c0-1.8-0.4-3.3-1.3-4.4c-0.8-1.1-1.9-2-3.3-2.6c-1.3-0.6-2.8-1-4.4-1.2c-1.6-0.2-3.2-0.3-4.7-0.3h-8.1V144.5
				z"/>
			<path class="st21" d="M236.3,131.6c-1.3-1.6-3-2.8-5.2-3.6c-2.2-0.8-4.3-1.2-6.3-1.2c-1.2,0-2.3,0.1-3.6,0.4
				c-1.2,0.3-2.4,0.7-3.5,1.3c-1.1,0.6-2,1.3-2.6,2.3c-0.7,1-1,2.1-1,3.5c0,2.2,0.8,3.8,2.4,5c1.6,1.2,3.7,2.1,6.2,3
				c2.5,0.8,5.1,1.6,8,2.4c2.8,0.8,5.5,2,8,3.5c2.5,1.5,4.5,3.5,6.2,6c1.6,2.5,2.4,5.9,2.4,10.1c0,4-0.7,7.5-2.2,10.5
				c-1.5,3-3.5,5.5-6.1,7.4c-2.5,2-5.5,3.4-8.9,4.4c-3.4,0.9-6.9,1.4-10.6,1.4c-4.7,0-9-0.7-13-2.1c-4-1.4-7.7-3.7-11.2-6.9
				l11.3-12.4c1.6,2.2,3.7,3.9,6.2,5c2.5,1.2,5,1.8,7.7,1.8c1.3,0,2.6-0.2,3.9-0.5s2.5-0.8,3.6-1.4c1.1-0.6,1.9-1.4,2.5-2.3
				c0.6-0.9,1-2.1,1-3.4c0-2.2-0.8-3.9-2.5-5.1c-1.7-1.3-3.7-2.3-6.3-3.2c-2.5-0.9-5.2-1.8-8.1-2.6c-2.9-0.9-5.6-2.1-8.1-3.6
				c-2.5-1.5-4.6-3.5-6.3-5.9c-1.7-2.4-2.5-5.7-2.5-9.7c0-3.9,0.8-7.3,2.3-10.2c1.5-2.9,3.6-5.4,6.1-7.3c2.5-2,5.5-3.4,8.8-4.4
				c3.3-1,6.8-1.5,10.3-1.5c4.1,0,8,0.6,11.8,1.7c3.8,1.2,7.2,3.1,10.3,5.8L236.3,131.6z"/>
		</g>
	</g>
</g>
</svg>
