<?xml version="1.0" encoding="utf-8"?>
<!-- Generator: Adobe Illustrator 23.0.6, SVG Export Plug-In . SVG Version: 6.00 Build 0)  -->
<svg version="1.1" xmlns="http://www.w3.org/2000/svg" xmlns:xlink="http://www.w3.org/1999/xlink" x="0px" y="0px"
	 viewBox="0 0 300 300" style="enable-background:new 0 0 300 300;" xml:space="preserve">
<g id="Course_Badges__x26__Logos">
	<g>
		<path style="fill:#097151;" d="M254.3,45.7C226.4,17.8,189.4,2.5,150,2.5S73.6,17.8,45.7,45.7S2.5,110.6,2.5,150
			s15.3,76.4,43.2,104.3s64.9,43.2,104.3,43.2s76.4-15.3,104.3-43.2s43.2-64.9,43.2-104.3S282.2,73.6,254.3,45.7z"/>
		<g>
			<circle style="fill:#6BAA97;" cx="150" cy="27.5" r="5"/>
			<path style="fill:#6BAA97;" d="M109.8,39.5c2.6-0.9,3.9-3.8,3-6.4s-3.8-3.9-6.4-3s-3.9,3.8-3,6.4
				C104.4,39.2,107.2,40.5,109.8,39.5z"/>
			<path style="fill:#6BAA97;" d="M68,52.3c-2.1,1.8-2.4,4.9-0.6,7s4.9,2.4,7,0.6c2.1-1.8,2.4-4.9,0.6-7
				C73.3,50.8,70.1,50.6,68,52.3z"/>
			<path style="fill:#6BAA97;" d="M41.4,93.1c2.4,1.4,5.4,0.6,6.8-1.8c1.4-2.4,0.6-5.4-1.8-6.8c-2.4-1.4-5.4-0.6-6.8,1.8
				C38.2,88.6,39,91.7,41.4,93.1z"/>
			<path style="fill:#6BAA97;" d="M30.2,123.8c-2.7-0.5-5.3,1.3-5.8,4s1.3,5.3,4,5.8s5.3-1.3,5.8-4
				C34.7,126.9,32.9,124.3,30.2,123.8z"/>
			<path style="fill:#6BAA97;" d="M28.5,166.4c-2.7,0.5-4.5,3.1-4,5.8s3.1,4.5,5.8,4s4.5-3.1,4-5.8S31.2,165.9,28.5,166.4z"/>
			<path style="fill:#6BAA97;" d="M41.4,206.9c-2.4,1.4-3.2,4.4-1.8,6.8c1.4,2.4,4.4,3.2,6.8,1.8c2.4-1.4,3.2-4.4,1.8-6.8
				C46.8,206.4,43.8,205.6,41.4,206.9z"/>
			<path style="fill:#6BAA97;" d="M67.4,240.7c-1.8,2.1-1.5,5.3,0.6,7c2.1,1.8,5.3,1.5,7-0.6c1.8-2.1,1.5-5.3-0.6-7
				C72.3,238.3,69.2,238.5,67.4,240.7z"/>
			<ellipse style="fill:#6BAA97;" cx="108.1" cy="265.1" rx="5" ry="5"/>
			<path style="fill:#6BAA97;" d="M150,267.5c-2.8,0-5,2.2-5,5s2.2,5,5,5s5-2.2,5-5C155,269.8,152.8,267.5,150,267.5z"/>
			<path style="fill:#6BAA97;" d="M190.2,260.5c-2.6,0.9-3.9,3.8-3,6.4s3.8,3.9,6.4,3c2.6-0.9,3.9-3.8,3-6.4
				C195.7,260.8,192.8,259.5,190.2,260.5z"/>
			<path style="fill:#6BAA97;" d="M225.6,240c-2.1,1.8-2.4,4.9-0.6,7c1.8,2.1,4.9,2.4,7,0.6c2.1-1.8,2.4-4.9,0.6-7
				C230.8,238.5,227.7,238.3,225.6,240z"/>
			<path style="fill:#6BAA97;" d="M258.6,206.9c-2.4-1.4-5.4-0.6-6.8,1.8c-1.4,2.4-0.6,5.4,1.8,6.8c2.4,1.4,5.4,0.6,6.8-1.8
				C261.8,211.4,261,208.3,258.6,206.9z"/>
			<path style="fill:#6BAA97;" d="M280.2,150l4-15.6l10.9,0.7c-0.4-3.5-0.8-7-1.4-10.4l0,0v-0.1c-0.6-3.5-1.3-6.9-2.2-10.2l-10,4.3
				l-9.1-13.3l-1.6-16l10.5-3.1c-1.5-3.1-3.2-6.2-4.9-9.3h-0.1v-0.1c-1.8-3-3.6-6-5.6-8.9l-7.9,7.5l-13.1-9.4l-6.9-14.5l8.8-6.5
				c-2.5-2.4-5.1-4.8-7.8-7l0,0l0,0c-2.7-2.2-5.4-4.4-8.3-6.5l-4.9,9.8l-15.5-4.3l-11.5-11.3l6-9.1c-3.2-1.4-6.4-2.8-9.7-3.9h-0.1
				v-0.1c-3.3-1.2-6.6-2.3-10-3.2l-1.2,10.9l-16,1.3L158,15.1l2.5-10.6c-3.5-0.2-7-0.4-10.5-0.4l0,0l0,0c-3.5,0-7,0.1-10.5,0.4
				l2.5,10.6l-14.7,6.7l-16-1.3l-1.2-10.9c-3.4,1-6.7,2-10,3.2v0.1H100c-3.3,1.2-6.5,2.5-9.7,3.9l6,9.1L84.9,37.2l-15.5,4.3
				l-4.9-9.8c-2.8,2.1-5.6,4.2-8.3,6.5l0,0l0,0c-2.7,2.2-5.3,4.6-7.8,7l8.7,6.5l-6.9,14.5l-13.1,9.3L29.2,68c-2,2.9-3.8,5.8-5.6,8.9
				V77h-0.1c-1.7,3-3.4,6.1-4.9,9.3l10.5,3.1l-1.6,16l-9.1,13.3l-10-4.3c-0.8,3.4-1.6,6.8-2.2,10.2v0.1H6.1
				c-0.6,3.4-1.1,6.9-1.4,10.4l10.9-0.7l4,15.6l-4,15.6l-10.9-0.7c0.4,3.5,0.8,7,1.4,10.4h0.1l0,0c0.6,3.5,1.3,6.9,2.2,10.2l10-4.3
				l9.1,13.3l1.6,16l-10.5,3.1c1.5,3.1,3.2,6.2,4.9,9.3h0.1v0.1c1.7,3,3.6,6,5.6,8.9l7.9-7.5l13.1,9.3l6.9,14.5l-8.8,6.5
				c2.5,2.4,5.1,4.8,7.8,7l0,0l0,0c2.7,2.3,5.4,4.4,8.3,6.5l4.9-9.8l15.5,4.3L96.3,274l-6,9.1c3.2,1.4,6.4,2.7,9.7,3.9h0.1v0.1
				c3.3,1.2,6.6,2.3,10,3.2l1.2-10.9l16-1.3l14.7,6.7l-2.5,10.6c3.5,0.2,7,0.4,10.5,0.4l0,0l0,0c3.5,0,7-0.1,10.5-0.4l-2.5-10.6
				l14.7-6.7l16,1.3l1.2,10.9c3.4-1,6.7-2,10-3.2V287h0.1c3.3-1.2,6.5-2.5,9.7-3.9l-6-9.1l11.5-11.3l15.5-4.3l4.9,9.8
				c2.8-2.1,5.6-4.2,8.3-6.5l0,0l0,0c2.7-2.3,5.3-4.6,7.8-7l-8.8-6.5l6.9-14.5l13.1-9.3l7.9,7.5c2-2.9,3.8-5.8,5.6-8.9v-0.1h0.1
				c1.7-3,3.4-6.1,4.9-9.3l-10.5-3.1l1.6-16l9.1-13.3l10,4.4c0.9-3.4,1.6-6.8,2.2-10.2l0,0l0,0c0.6-3.4,1.1-6.9,1.4-10.4l-10.9,0.7
				L280.2,150z M278,172.6c-1.3,7.5-3.3,14.8-5.9,21.8s-5.7,13.9-9.6,20.6c-3.9,6.7-8.2,12.8-13,18.5s-10.1,11.1-16,16
				s-12.1,9.2-18.6,13c-6.4,3.7-13.3,7-20.5,9.6s-14.6,4.5-21.9,5.8c-7.3,1.3-14.8,2-22.5,2s-15.2-0.7-22.5-2s-14.7-3.2-21.9-5.8
				c-7.3-2.6-14.1-5.9-20.5-9.6s-12.7-8-18.5-12.9c-5.9-4.9-11.1-10.3-15.9-15.9c-4.8-5.7-9.2-11.9-13.1-18.6
				c-3.9-6.7-7-13.5-9.5-20.5s-4.6-14.3-5.9-21.9c-1.3-7.6-1.9-15.1-1.9-22.6c0-7.4,0.6-15,1.9-22.6s3.3-14.9,5.9-21.8
				c2.6-7,5.7-13.9,9.5-20.6c3.9-6.7,8.3-12.8,13-18.6c4.8-5.7,10.1-11.1,16-16c5.9-5,12.1-9.2,18.6-13c6.4-3.7,13.3-7,20.5-9.6
				s14.6-4.5,21.9-5.8c7.3-1.3,14.8-2,22.5-2c7.7,0,15.1,0.7,22.4,2c7.4,1.3,14.7,3.2,22,5.8c7.2,2.6,14,5.9,20.5,9.6
				s12.7,8,18.6,13c5.9,5,11.2,10.4,16,16.1s9.1,11.8,13,18.5s7,13.6,9.5,20.6s4.6,14.3,5.9,21.8c1.3,7.6,1.9,15.1,1.9,22.6
				C279.9,157.4,279.3,165,278,172.6z"/>
			<path style="fill:#6BAA97;" d="M271.5,166.4c-2.7-0.5-5.3,1.3-5.8,4.1c-0.5,2.7,1.3,5.3,4,5.8s5.3-1.3,5.8-4
				C276.1,169.4,274.2,166.8,271.5,166.4z"/>
			<ellipse style="fill:#6BAA97;" cx="270.7" cy="128.7" rx="5" ry="5"/>
			<path style="fill:#6BAA97;" d="M253.6,84.4c-2.4,1.4-3.2,4.4-1.8,6.8s4.4,3.2,6.8,1.8c2.4-1.4,3.2-4.4,1.8-6.8
				C259.1,83.9,256,83,253.6,84.4z"/>
			<path style="fill:#6BAA97;" d="M224.9,52.9c-1.8,2.1-1.5,5.3,0.6,7c2.1,1.8,5.2,1.5,7-0.6s1.5-5.2-0.6-7
				C229.9,50.6,226.7,50.8,224.9,52.9z"/>
			<path style="fill:#6BAA97;" d="M193.6,30.2c-2.6-0.9-5.5,0.4-6.4,3s0.4,5.5,3,6.4s5.4-0.4,6.4-3C197.5,34,196.2,31.1,193.6,30.2z
				"/>
		</g>
		<path style="fill:#FFFFFF;" d="M262.9,150c0,62.3-50.5,112.9-112.9,112.9c-62.3,0-112.9-50.5-112.9-112.9
			C37.1,87.7,87.7,37.1,150,37.1S262.9,87.7,262.9,150z"/>
		<g>
			<path style="fill:#097151;" d="M45.7,121.1h21.5c12,0,21.9,3.8,21.9,17.5c0,13.5-9.2,17.7-21.4,17.7h-9.3v22.5H45.7V121.1z
				 M58.4,145.6h8.5c4.5,0,9-1.5,9-6.9c0-6-6-6.8-10.9-6.8h-6.5V145.6z"/>
			<path style="fill:#097151;" d="M108.6,121.1h10.5l25.1,57.8h-14.4l-5-12.2h-22.4l-4.8,12.2h-14L108.6,121.1z M113.5,137.9
				l-7,17.9h14.1L113.5,137.9z"/>
			<path style="fill:#097151;" d="M150.5,121.1h12.7v46h23.6v11.7h-36.3V121.1z"/>
			<path style="fill:#097151;" d="M208.5,156.9h-20.1v-9.8h20.1V156.9z"/>
			<path style="fill:#097151;" d="M213.6,121.1h39.2v11.7h-26.5v10.8h25v11.7h-25v11.7h28v11.7h-40.7V121.1z"/>
		</g>
	</g>
</g>
</svg>
